<svg id="Layer_1" data-name="Layer 1" xmlns="http://www.w3.org/2000/svg" viewBox="0 0 500 500"><defs><style>.cls-1{fill:#0a0a0a;}.cls-2{fill:#fee101;}.cls-3{fill:#fff;}</style></defs><title>Iconos para Design Web Ariel Coreas</title><path class="cls-1" d="M295.92784,361.3562h-92.621a18.1,18.1,0,0,1-18.07949-18.07948v-23.729a18.10638,18.10638,0,0,1,.72735-5.08816,95.39781,95.39781,0,1,1,127.47332.54266,18.10457,18.10457,0,0,1,.57928,4.5455v23.729A18.10023,18.10023,0,0,1,295.92784,361.3562ZM250.00015,160.03864a83.72746,83.72746,0,0,0-53.25443,148.33609,5.83183,5.83183,0,0,1,1.17929,7.67455,6.40619,6.40619,0,0,0-1.03407,3.49841v23.729a6.42331,6.42331,0,0,0,6.41593,6.41593h92.621a6.42357,6.42357,0,0,0,6.41593-6.41593v-23.729a6.42451,6.42451,0,0,0-.90064-3.28525,5.83023,5.83023,0,0,1,1.33347-7.511,83.71775,83.71775,0,0,0-52.77645-148.71278Z"/><path class="cls-2" d="M283.0913,367.8212s.2666,35.37387-33.33274,35.74873c-33.591.3833-32.67464-34.23251-32.67464-34.23251l.04164-10.114.43324-117.327.01668-.03325.00834-.025c1.01637-.89982,33.91592-29.63382,65.94905.24987l.00834.01668.01668.03326Z"/><path class="cls-1" d="M249.20039,409.40491c-11.08916,0-20.07033-3.41055-26.70186-10.143-11.31493-11.4862-11.273-28.49908-11.24619-29.99689l.0415-10.06567.43323-117.32385a5.99855,5.99855,0,0,1,1.99125-4.40394,65.7452,65.7452,0,0,1,23.594-12.65613c12.635-3.6416,31.60127-4.34047,50.199,13.00842a5.82977,5.82977,0,0,1,1.28709,1.75653,5.989,5.989,0,0,1,.59148,2.57987l-.467,125.66961a52.17015,52.17015,0,0,1-4.60977,20.18342c-4.478,9.63122-14.09618,21.16053-34.4895,21.38834C249.61532,409.40328,249.407,409.40491,249.20039,409.40491Zm-25.81993-164.755-.465,124.712c-.0004.04312-.00081.08624-.002.13017-.002.11391-.16638,13.45914,7.94588,21.6373,4.44095,4.47716,10.756,6.7316,18.83246,6.60875,11.535-.12855,19.35193-4.81724,23.89987-14.33537a40.60844,40.60844,0,0,0,3.66764-15.55656V367.799l.45724-123.0881C254.051,224.50306,230.2585,239.46163,223.38046,244.64986Z"/><path class="cls-3" d="M283.53287,242.088c-32.03313-29.88369-64.93268-1.14969-65.949-.24987l29.842-69.9314a3.74445,3.74445,0,0,1,6.89819.03336Z"/><path class="cls-1" d="M283.5345,247.91966a5.82333,5.82333,0,0,1-3.98006-1.56778c-28.04835-26.16571-56.89238-1.22119-58.10543-.14725a5.83161,5.83161,0,0,1-9.22931-6.65513l29.8423-69.93171a9.55565,9.55565,0,0,1,8.80543-5.81306h.0423a9.5588,9.5588,0,0,1,8.7973,5.89035l29.20933,70.15138a5.83139,5.83139,0,0,1-5.38186,8.0732Zm-32.68985-69.16612-20.76432,48.65808a61.11823,61.11823,0,0,1,7.232-2.59615,49.06087,49.06087,0,0,1,33.47333,1.82894Z"/><path class="cls-1" d="M283.08133,365.30209h-.02278l-66.63425-.24652a5.83179,5.83179,0,0,1,.02116-11.66355h.022l66.63506.24652a5.8318,5.8318,0,0,1-.02115,11.66355Z"/><path class="cls-3" d="M217.5588,241.86318l.025-.025-.00834.025Z"/><path class="cls-1" d="M217.57553,247.69511a5.84818,5.84818,0,1,1,5.55841-4.06629A5.8427,5.8427,0,0,1,217.57553,247.69511Z"/><path class="cls-3" d="M283.55789,242.10471h-.01668l-.00834-.01668C283.54121,242.088,283.54955,242.09637,283.55789,242.10471Z"/><path class="cls-1" d="M283.55809,247.93675H283.541a5.84033,5.84033,0,0,1-.00814-11.68064,5.90962,5.90962,0,0,1,4.14928,1.7248,5.83239,5.83239,0,0,1-4.12406,9.95584Z"/><path class="cls-1" d="M247.50081,139.74865a5.83155,5.83155,0,0,1-5.83177-5.83178v-37.49a5.83178,5.83178,0,1,1,11.66355,0v37.49A5.83155,5.83155,0,0,1,247.50081,139.74865Z"/><line class="cls-3" x1="306.22351" y1="147.51909" x2="320.40967" y2="112.81674"/><path class="cls-1" d="M306.22132,153.3526a5.83552,5.83552,0,0,1-5.3957-8.03985l14.18567-34.70265a5.83166,5.83166,0,1,1,10.79627,4.41288l-14.18567,34.70266A5.83375,5.83375,0,0,1,306.22132,153.3526Z"/><line class="cls-3" x1="338.85573" y1="171.84639" x2="369.42235" y2="150.13967"/><path class="cls-1" d="M338.86072,177.6788a5.83239,5.83239,0,0,1-3.38126-10.58719l30.56639-21.70645a5.83148,5.83148,0,0,1,6.75276,9.50919l-30.56639,21.70644A5.80178,5.80178,0,0,1,338.86072,177.6788Z"/><line class="cls-3" x1="161.14457" y1="171.84639" x2="130.57795" y2="150.13967"/><path class="cls-1" d="M161.13957,177.6788a5.803,5.803,0,0,1-3.3719-1.078l-30.56639-21.70644a5.83171,5.83171,0,1,1,6.75357-9.50919l30.56639,21.70645a5.83239,5.83239,0,0,1-3.38167,10.58719Z"/><line class="cls-3" x1="193.77678" y1="147.51909" x2="179.59062" y2="112.81674"/><path class="cls-1" d="M193.779,153.3526a5.83321,5.83321,0,0,1-5.40017-3.627L174.19232,115.023a5.83166,5.83166,0,1,1,10.79628-4.41288l14.18648,34.70265a5.83521,5.83521,0,0,1-5.3961,8.03985Z"/></svg>