<svg id="Layer_1" data-name="Layer 1" xmlns="http://www.w3.org/2000/svg" viewBox="0 0 500 500"><defs><style>.cls-1{fill:#fee101;}.cls-2{fill:none;}.cls-3{fill:#fff;}.cls-4{fill:#0a0a0a;}</style></defs><title>Iconos para Design Web Ariel Coreas</title><rect class="cls-1" x="101.87707" y="145.44455" width="22.494" height="64.98267"/><path class="cls-2" d="M219.25411,150.11v54.81865a6.6237,6.6237,0,0,1-4.907,2.16617H112.52426a6.67377,6.67377,0,0,1-6.66489-6.66489V154.60878a6.6737,6.6737,0,0,1,6.66489-6.66489H214.34707A6.624,6.624,0,0,1,219.25411,150.11Z"/><path class="cls-3" d="M383.96024,128.78233V327.99586a25.00149,25.00149,0,0,1-24.99333,24.99333H297.65819V276.22632a19.10728,19.10728,0,0,0-6.9648-14.7627l-71.43928,53.58566-5.83178,4.37383V207.09478h.92474a6.6237,6.6237,0,0,0,4.907-2.16617V150.11a6.624,6.624,0,0,0-4.907-2.16607h-.92474V128.78233A24.99714,24.99714,0,0,1,238.41567,103.789H358.96691A24.99186,24.99186,0,0,1,383.96024,128.78233Z"/><path class="cls-4" d="M358.96691,97.95722H238.41567a30.862,30.862,0,0,0-30.82511,30.82511v19.16156h6.75651a6.624,6.624,0,0,1,4.907,2.16607V128.78233a19.18563,19.18563,0,0,1,19.16156-19.16155H358.96691a19.18569,19.18569,0,0,1,19.16155,19.16155V327.99586a19.18566,19.18566,0,0,1-19.16155,19.16155H297.65819V358.821h61.30872A30.86186,30.86186,0,0,0,389.792,327.99586V128.78233A30.86206,30.86206,0,0,0,358.96691,97.95722ZM207.59056,207.09478V323.797l11.66355-8.74767V204.92861a6.6237,6.6237,0,0,1-4.907,2.16617Z"/><path class="cls-1" d="M402.95588,363.32346s.24524,32.53981-30.6622,32.88463c-30.89982.3526-30.05684-31.48988-30.05684-31.48988l.03831-9.30368.39852-107.92707.01534-.03059.00767-.023c.93495-.82773,31.19867-27.25963,60.66539.22986l.00768.01534.01534.03059Z"/><path class="cls-4" d="M387.71748,244.02656c-.74982-.34161-1.4912-.64141-2.23278-.89973C386.22628,243.39349,386.96766,243.69329,387.71748,244.02656ZM383.277,242.402c.225.06661.44992.13333.68321.20828V242.602C383.727,242.53536,383.502,242.4603,383.277,242.402Zm0,0c-.97477-.28323-1.94955-.51652-2.90755-.69978C381.32748,241.89385,382.294,242.1188,383.277,242.402Zm-7.86452-1.27468c.89139.04159,1.79945.1083,2.716.225.74138.09163,1.48286.20828,2.241.34995-.74982-.15-1.49964-.26666-2.241-.35829C377.212,241.22732,376.3039,241.1607,375.41251,241.12735Zm-3.47421.03335c.56626-.03325,1.14085-.0541,1.72053-.0603Q372.78931,241.1097,371.9383,241.1607Zm1.72053-.0603q.86739-.00947,1.75368.02695C374.8248,241.10233,374.23922,241.09409,373.65883,241.1004Zm-8.04371,1.01006c-.99146.225-1.94956.49985-2.88264.79976C363.66556,242.61031,364.62366,242.34376,365.61512,242.11046Zm43.56331,4.97365v-.00834a4.08413,4.08413,0,0,0-.09163-.55812,2.33045,2.33045,0,0,0-.11665-.47493l-.02491-.07505c-.01668-.05827-.03336-.12489-.05838-.1916a1.383,1.383,0,0,0-.11665-.30815l-.02491-.05-.09174-.21662c0-.01668,0-.025-.01667-.03336a4.44672,4.44672,0,0,0-.25822-.48316c-.1-.15835-.2-.31659-.30824-.46649a5.65016,5.65016,0,0,0-.73314-.81654c-.075-.06661-.14167-.13332-.21662-.1916a58.28259,58.28259,0,0,0-8.29786-6.45661,48.576,48.576,0,0,0-8.05612-4.16555l-.57479-.225a3.93782,3.93782,0,0,0-.39988-.15c-.21662-.08319-.43324-.16659-.64985-.24154-.35-.125-.69989-.24987-1.04139-.35828-.33337-.11655-.67487-.225-1.00813-.32482-.02492-.00834-.05828-.01668-.0833-.025-.31658-.09173-.63317-.1916-.95809-.275-.40822-.11655-.8081-.225-1.21631-.32483q-.42485-.10007-.84979-.19994a.03056.03056,0,0,0-.02492-.00833c-.33337-.07506-.66653-.14167-.99145-.20828-.375-.07506-.74149-.15-1.11634-.20828-.3-.05837-.59982-.10841-.89149-.15-.958-.15-1.89952-.26656-2.8325-.34161-.325-.03336-.65819-.05827-.99145-.075a48.04159,48.04159,0,0,0-16.42069,1.84948c-1.54947.44991-3.04911.9581-4.4737,1.49964-.39164.15835-.78318.30825-1.16648.45815v.00834a60.849,60.849,0,0,0-8.04778,3.999,55.8894,55.8894,0,0,0-8.01453,5.6235c-.06661.05-.125.1083-.18336.15824-.09153.07505-.17492.15834-.25821.24163l-.02491.025-.0417.0417a3.41187,3.41187,0,0,0-.2333.25821c-.07505.08329-.14156.175-.21661.26655a.197.197,0,0,0-.05.07505,4.20513,4.20513,0,0,0-.2998.44992,4.46365,4.46365,0,0,0-.28334.51642.103.103,0,0,0-.03335.06671l-.05828.13323c-.01667.03335-.02491.06671-.04159.10007-.0417.09987-.075.19994-.11675.2998-.01668.05838-.03326.10841-.04993.15835l-.04994.15a1.94932,1.94932,0,0,0-.075.31649c-.025.10841-.05.21661-.06661.325a3.71021,3.71021,0,0,0-.05828.4249,4.05542,4.05542,0,0,0-.03335.54978l-.36652,99.6901-.025,5.63184v.19994l-.00834,2.39937-.00834,2.62422v.80819l-.025,5.82344c-.025,1.44127-.04169,17.24546,10.48061,27.9259,6.19,6.28993,14.56276,9.47247,24.89326,9.47247h.58314c18.995-.21662,27.96759-10.96377,32.14149-19.94463a48.58081,48.58081,0,0,0,4.2822-18.77L409.22,247.734A5.66564,5.66564,0,0,0,409.17843,247.08411ZM397.13167,361.44529l-.00833,1.85782v.06661c.00833,1.09143-.0833,26.73451-24.89337,27.0095h-.43323c-7.07311,0-12.63823-1.99948-16.55392-5.94008-7.323-7.373-7.18141-19.46981-7.17307-19.56977v-.125l.01668-3.474.00834-2.4494.01667-5.83178.01668-3.38238.00834-2.4494.35818-96.8991V250.25c.16659-.12508.34985-.25831.54144-.39164.175-.13332.36663-.26655.56656-.39987.19171-.14167.4-.28323.60826-.4249a.14693.14693,0,0,0,.0416-.03325c.3416-.225.69144-.45825,1.0663-.69989,1.17482-.74972,2.54937-1.56625,4.09071-2.35767.42489-.21661.858-.43323,1.30794-.64985.27489-.14166.56656-.27489.858-.39988.24164-.11664.49161-.225.74993-.33326.26655-.11665.54144-.2333.81643-.34984.89138-.36662,1.81612-.71657,2.77422-1.03305.25821-.09173.5332-.18336.79986-.26665.00823-.00834.00823-.00834.01657,0,.93308-.29991,1.89118-.56646,2.88264-.79976.24153-.05837.48317-.10841.733-.16668.16668-.0416.33326-.075.50829-.10831.25821-.04993.50808-.1.76639-.14156.68321-.125,1.37466-.2333,2.08278-.32493.34994-.0417.69989-.075,1.05807-.10831.32492-.03335.65819-.05837.983-.08339a1.48854,1.48854,0,0,1,.1916-.01658c.56626-.03325,1.14085-.0541,1.72053-.0603q.86739-.00947,1.75368.02695c.89139.04159,1.79945.1083,2.716.225.74138.09163,1.48286.20828,2.241.34995.958.1916,1.92454.41655,2.90755.69978.225.06661.44992.13333.68321.20828.50808.15834,1.01637.33326,1.52446.51652.74158.26666,1.483.56646,2.23278.89973.24163.10831.49151.225.73314.33326.25.11665.50829.24164.7665.37486.1916.10007.3832.1916.5749.29167.30814.15824.61649.32482.933.50819.25.13332.49995.28323.74982.42479.24987.15.50818.3.75816.45825q1.19963.73741,2.39936,1.59961c.46649.33327.92474.67477,1.39133,1.04139.50809.39154,1.008.79975,1.51622,1.233l-.36662,99.49017Z"/><path class="cls-3" d="M403.36207,247.66371c-29.46672-27.48949-59.73044-1.05759-60.66539-.22986l27.45114-64.32868a3.44445,3.44445,0,0,1,6.34552.03069Z"/><path class="cls-4" d="M408.94524,245.96767q-.08757-.27489-.19994-.54978l-.09174-.21662c0-.01668,0-.025-.01667-.03336L389.792,199.89669l-5.83178-14.00455-2.08278-4.99867a9.29116,9.29116,0,0,0-8.52281-5.70689,9.31051,9.31051,0,0,0-8.57264,5.63184l-27.3928,64.19125-.05828.13323c-.01667.03335-.02491.06671-.04159.10007-.05838.1499-.11675.30814-.16668.45815a5.834,5.834,0,0,0,9.43911,6.09833.44111.44111,0,0,0,.10007-.08319c.25821-.225.883-.75826,1.8328-1.458.16659-.13342.34985-.26665.54144-.4.175-.13332.36663-.26655.56656-.39987.19171-.14167.4-.28323.60826-.4249a.14693.14693,0,0,0,.0416-.03325c.33326-.225.69144-.45825,1.0663-.69989,1.17482-.74972,2.54937-1.56625,4.09071-2.35767.41655-.21661.858-.44157,1.30794-.64985.27489-.14166.56656-.27489.858-.39988.25-.11664.5-.23329.74993-.33326.26655-.12489.54144-.24163.81643-.34984.89138-.36662,1.81612-.71657,2.77422-1.03305.26655-.10007.5332-.18336.79986-.26665.00823-.00834.00823-.00834.01657,0,.93308-.29991,1.89118-.5748,2.88264-.79976.24153-.06671.48317-.11665.733-.16668.16668-.0416.33326-.075.50829-.10831a7.78036,7.78036,0,0,1,.76639-.14156c.68321-.13333,1.37466-.24164,2.08278-.32493.34994-.05.69989-.08329,1.05807-.10831.32492-.04169.64985-.06671.983-.08339a1.48854,1.48854,0,0,1,.1916-.01658,34.42654,34.42654,0,0,1,3.47421-.03335c.89139.03335,1.79945.1,2.716.21661.74138.09163,1.4912.20828,2.241.35829.958.18326,1.93278.41655,2.90755.69978.225.05827.44992.13333.68321.19994v.00834c.49975.15,1.008.32492,1.52446.51652.74158.25832,1.483.55812,2.23278.89973.24163.1.48317.21661.73314.33326s.50829.24164.7665.37486c.1916.09173.3832.1916.5749.29167.30814.15824.61649.32482.933.50819q.375.2.74982.42479c.24987.15.49984.3.75816.45825q1.19963.73741,2.39936,1.59961c.46649.33327.92474.67477,1.39133,1.04139.50809.39154,1.008.79975,1.51622,1.233.54988.45815,1.09966.94976,1.64954,1.45794.06662.05828.125.11665.1916.175a5.81939,5.81939,0,0,0,3.4491,1.54947c.17492.01668.34984.025.5332.025a5.84838,5.84838,0,0,0,5.58191-7.53136Zm-20.84446-14.35449c-.33337-.11655-.67487-.225-1.00813-.32482-.02492-.00834-.05828-.01668-.0833-.025-.31658-.09173-.63317-.1916-.95809-.275-.40822-.11655-.8081-.225-1.21631-.32483q-.42485-.10007-.84979-.19994a.03056.03056,0,0,0-.02492-.00833c-.33337-.07506-.66653-.14167-.99145-.20828-.375-.07506-.74149-.15-1.11634-.20828-.3-.05837-.59982-.10841-.89149-.15-.958-.15-1.89952-.26656-2.8325-.34161-.325-.03336-.65819-.05827-.99145-.075a48.04159,48.04159,0,0,0-16.42069,1.84948c-1.54947.44991-3.04911.9581-4.4737,1.49964-.39164.15835-.78318.30825-1.16648.46649v-.00834l18.2119-42.67192,4.84042,11.62186,5.83178,14.013L389.792,230.247l.97467,2.341-.57479-.225c-.13343-.05827-.26666-.10831-.39988-.15824-.21662-.08329-.43324-.15835-.64985-.2333C388.79222,231.84648,388.44228,231.72159,388.10078,231.61318Z"/><path class="cls-4" d="M402.94667,361.47336h-.022l-61.2955-.22618a5.83179,5.83179,0,0,1,.02034-11.66355h.022l61.2955.22617a5.8318,5.8318,0,0,1-.02034,11.66356Z"/><path class="cls-3" d="M342.67367,247.45687l.023-.023-.00767.023Z"/><path class="cls-4" d="M347.36986,243.94327a5.69359,5.69359,0,0,0-1.63286-1.483,5.30859,5.30859,0,0,0-.74972-.38319,5.80467,5.80467,0,0,0-5.97345.83311c-.06661.05-.125.1083-.18336.15824-.09153.07505-.17492.15834-.25821.24163l-.02491.025-.0417.0417a3.41187,3.41187,0,0,0-.2333.25821c-.07505.08329-.14156.175-.21661.26655a.197.197,0,0,0-.05.07505,2.48082,2.48082,0,0,0-.2998.44992,4.46365,4.46365,0,0,0-.28334.51642.103.103,0,0,0-.03335.06671l-.05828.13323c-.01667.03335-.02491.06671-.04159.10007-.0417.09987-.075.19994-.11675.2998a1.91694,1.91694,0,0,0-.09987.30835,1.94932,1.94932,0,0,0-.075.31649c-.025.10841-.05.21661-.06661.325a3.71021,3.71021,0,0,0-.05828.4249,5.84539,5.84539,0,0,0,5.77341,6.37322h.04169a5.79377,5.79377,0,0,0,3.87389-1.4913.44111.44111,0,0,0,.10007-.08319c.05827-.05.10821-.10841.15824-.15835h.00834a5.86621,5.86621,0,0,0,.54144-7.61464Z"/><path class="cls-3" d="M403.38509,247.67905h-.01534l-.00768-.01534C403.36975,247.66371,403.37742,247.67138,403.38509,247.67905Z"/><path class="cls-4" d="M403.38519,253.51062h-.01545a5.84279,5.84279,0,1,1,.01545,0Z"/><polygon class="cls-1" points="102.71 258.748 200.184 322.064 289.527 255.049 102.71 258.748"/><polygon class="cls-4" points="293.026 259.714 290.693 261.464 219.254 315.049 207.591 323.797 200.426 329.171 104.785 267.045 99.536 263.638 105.884 253.857 113.099 258.539 113.557 258.839 199.943 314.958 207.591 309.218 219.254 300.47 277.122 257.065 279.546 255.249 286.028 250.383 289.527 255.049 293.026 259.714"/><path class="cls-4" d="M278.49663,245.40121H121.60509A30.85677,30.85677,0,0,0,90.78,276.22632v91.58385a30.862,30.862,0,0,0,30.82511,30.82511H278.49663a30.86193,30.86193,0,0,0,30.82511-30.82511V276.22632A30.8567,30.8567,0,0,0,278.49663,245.40121Zm19.16156,122.409a19.18568,19.18568,0,0,1-19.16156,19.16156H121.60509a19.18568,19.18568,0,0,1-19.16156-19.16156V276.22632a19.07464,19.07464,0,0,1,2.34109-9.1809,19.26618,19.26618,0,0,1,8.77269-8.20612c.24163-.11665.4915-.225.74138-.32493a19.01976,19.01976,0,0,1,7.3064-1.4496H278.49663a19.19152,19.19152,0,0,1,19.16156,19.16155Z"/><path class="cls-4" d="M318.486,152.94255H246.0053a5.83178,5.83178,0,1,1,0-11.66355H318.486a5.83178,5.83178,0,1,1,0,11.66355Z"/><path class="cls-4" d="M318.486,179.60211H246.0053a5.83178,5.83178,0,1,1,0-11.66356H318.486a5.83178,5.83178,0,1,1,0,11.66356Z"/><path class="cls-4" d="M219.25411,136.9552a17.988,17.988,0,0,0-4.907-.67487H112.52426a18.3501,18.3501,0,0,0-18.32845,18.32845v45.82111a18.3501,18.3501,0,0,0,18.32845,18.32844H214.34707a17.98758,17.98758,0,0,0,4.907-.67487,18.35241,18.35241,0,0,0,13.42141-17.65357V154.60878A18.35232,18.35232,0,0,0,219.25411,136.9552Zm1.75785,63.47469a6.68375,6.68375,0,0,1-6.66489,6.66489H112.52426a6.67377,6.67377,0,0,1-6.66489-6.66489V154.60878a6.6737,6.6737,0,0,1,6.66489-6.66489H214.34707a6.68358,6.68358,0,0,1,6.66489,6.66489Z"/><rect class="cls-4" x="119.37241" y="138.77967" width="11.66356" height="73.31378"/><path class="cls-4" d="M203.51663,169.60478H156.0293a5.83178,5.83178,0,0,1,0-11.66356h47.48733a5.83178,5.83178,0,0,1,0,11.66356Z"/></svg>