<svg id="Layer_1" data-name="Layer 1" xmlns="http://www.w3.org/2000/svg" viewBox="0 0 500 500"><defs><style>.cls-1{fill:#fff;}.cls-2{fill:#0a0a0a;}.cls-3{fill:#fee101;}</style></defs><title>Iconos para Design Web Ariel Coreas</title><rect class="cls-1" x="72.86579" y="128.78233" width="354.26841" height="242.43534" rx="30"/><path class="cls-2" d="M402.14122,377.04945H97.85878a30.86,30.86,0,0,1-30.82511-30.82512V153.77567a30.8603,30.8603,0,0,1,30.82511-30.82512H402.14122a30.8603,30.8603,0,0,1,30.82511,30.82512V346.22433A30.86,30.86,0,0,1,402.14122,377.04945ZM97.85878,134.61411a19.18312,19.18312,0,0,0-19.16156,19.16156V346.22433a19.18286,19.18286,0,0,0,19.16156,19.16156H402.14122a19.18286,19.18286,0,0,0,19.16156-19.16156V153.77567a19.18312,19.18312,0,0,0-19.16156-19.16156Z"/><path class="cls-3" d="M255.46125,208.74983v82.49952a5.83177,5.83177,0,0,0,9.15914,4.78939L327.32,252.479a5.83177,5.83177,0,0,0-.2506-9.74349l-62.69964-38.93978A5.83178,5.83178,0,0,0,255.46125,208.74983Z"/><path class="cls-2" d="M261.29663,302.91883a11.67908,11.67908,0,0,1-11.66681-11.66925V208.75a11.66283,11.66283,0,0,1,17.8167-9.90825l62.69975,38.93981a11.66284,11.66284,0,0,1,.50035,19.487l-62.69893,43.55934A11.64357,11.64357,0,0,1,261.29663,302.91883ZM261.29337,208.75v82.49956l62.69894-43.56016-62.69975-38.93981Z"/><path class="cls-2" d="M247.65525,269.8946H208.499a5.83178,5.83178,0,1,1,0-11.66356h39.15622a5.83178,5.83178,0,1,1,0,11.66356Z"/><path class="cls-2" d="M232.65925,293.32178H215.997a5.83178,5.83178,0,0,1,0-11.66356h16.66222a5.83178,5.83178,0,0,1,0,11.66356Z"/><path class="cls-2" d="M186.83814,293.32178H170.17591a5.83178,5.83178,0,0,1,0-11.66356h16.66223a5.83178,5.83178,0,0,1,0,11.66356Z"/></svg>