<svg id="Layer_1" data-name="Layer 1" xmlns="http://www.w3.org/2000/svg" viewBox="0 0 500 500"><defs><style>.cls-1{fill:#fff;}.cls-2{fill:#0a0a0a;}.cls-3{fill:#fee101;}</style></defs><title>Iconos para Design Web Ariel Coreas</title><path class="cls-1" d="M321.322,187.408V307.44258a24.99174,24.99174,0,0,1-24.99333,24.99333H177.96017L120.64229,389.754a2.49878,2.49878,0,0,1-4.26563-1.76619V332.43591H97.865a24.99174,24.99174,0,0,1-24.99333-24.99333V187.408A24.99173,24.99173,0,0,1,97.865,162.41463H296.32867A24.99174,24.99174,0,0,1,321.322,187.408Z"/><path class="cls-2" d="M118.88413,396.32124a8.34187,8.34187,0,0,1-8.33924-8.33355V338.26788H97.86516A30.86,30.86,0,0,1,67.04,307.44277V187.40805a30.85977,30.85977,0,0,1,30.82511-30.82511H296.32867a30.8603,30.8603,0,0,1,30.82511,30.82511V307.44277a30.86057,30.86057,0,0,1-30.82511,30.82511h-115.953L124.76635,393.878A8.30981,8.30981,0,0,1,118.88413,396.32124ZM97.86516,168.2465a19.18311,19.18311,0,0,0-19.16155,19.16155V307.44277a19.18285,19.18285,0,0,0,19.16155,19.16155h24.34328v53.3362l53.3362-53.3362h120.784a19.18285,19.18285,0,0,0,19.16155-19.16155V187.40805a19.18311,19.18311,0,0,0-19.16155-19.16155Z"/><rect class="cls-1" x="234.49748" y="106.59618" width="175.30808" height="119.968" rx="30"/><path class="cls-2" d="M384.81255,232.39605H259.49116a30.85977,30.85977,0,0,1-30.82511-30.82511V131.58961a30.85977,30.85977,0,0,1,30.82511-30.82511H384.81255a30.85977,30.85977,0,0,1,30.82511,30.82511v69.98133A30.85977,30.85977,0,0,1,384.81255,232.39605Zm-125.32139-119.968a19.18311,19.18311,0,0,0-19.16155,19.16156v69.98133a19.18312,19.18312,0,0,0,19.16155,19.16156H384.81255a19.18313,19.18313,0,0,0,19.16156-19.16156V131.58961a19.18312,19.18312,0,0,0-19.16156-19.16156Z"/><path class="cls-3" d="M304.65978,139.69173v50.007a3.53492,3.53492,0,0,0,5.5518,2.90308l38.0053-26.40368a3.53492,3.53492,0,0,0-.15191-5.906L310.05968,136.6888A3.53492,3.53492,0,0,0,304.65978,139.69173Z"/><path class="cls-2" d="M308.19806,199.07a9.37775,9.37775,0,0,1-9.37006-9.37128v-50.007a9.3666,9.3666,0,0,1,14.30852-7.95686l38.00581,23.60292a9.36753,9.36753,0,0,1,.40192,15.64971l-38.005,26.40409A9.35041,9.35041,0,0,1,308.19806,199.07Zm2.2935-55.24812v41.4847l31.528-21.90415Z"/><path class="cls-2" d="M198.85467,234.06228H119.70911a5.83178,5.83178,0,1,1,0-11.66356h79.14556a5.83178,5.83178,0,0,1,0,11.66356Z"/><path class="cls-2" d="M168.02955,268.21983H118.04289a5.83178,5.83178,0,1,1,0-11.66355h49.98666a5.83178,5.83178,0,1,1,0,11.66355Z"/><circle class="cls-1" cx="362.21176" cy="305.40885" r="26.10697"/><path class="cls-2" d="M362.20628,337.3648a31.94642,31.94642,0,1,1,29.66168-43.814h0a31.97762,31.97762,0,0,1-29.66168,43.814Zm.009-52.24193a20.282,20.282,0,1,0,18.82229,12.75783h0a20.3183,20.3183,0,0,0-18.82229-12.75783Z"/><rect class="cls-1" x="261.62007" y="345.86084" width="24.14193" height="44.91522" rx="1" transform="translate(-117.18924 127.94817) rotate(-21.79533)"/><path class="cls-2" d="M271.29384,399.2355a6.67588,6.67588,0,0,1-6.19626-4.19077L249.039,354.88617a6.6646,6.6646,0,0,1,3.71321-8.66224l20.87008-8.34576a6.67514,6.67514,0,0,1,8.66224,3.714l16.05854,40.15774a6.67487,6.67487,0,0,1-3.7132,8.66306l-.00081.00081-20.86927,8.34494A6.63493,6.63493,0,0,1,271.29384,399.2355ZM261.72527,355.197l12.34615,30.87555L285.65768,381.44l-12.347-30.87556Z"/><path class="cls-3" d="M249.57693,343.93937l86.76453-89.685a3.36864,3.36864,0,0,1,5.54892,1.0915l39.43225,98.611a3.36864,3.36864,0,0,1-3.36551,4.611l-126.19678-8.92593A3.36864,3.36864,0,0,1,249.57693,343.93937Z"/><path class="cls-2" d="M378.2095,364.40837q-.33073,0-.6647-.0236l-126.196-8.92584a9.20017,9.20017,0,0,1-5.96358-15.57364v-.00082L332.15,250.19974a9.20048,9.20048,0,0,1,15.15465,2.97934l39.43284,98.613a9.20132,9.20132,0,0,1-8.528,12.61627ZM257.44174,344.19729l117.00655,8.27578L337.88822,261.0432Zm-3.67334,3.79619.0057-.00489-.0057.0057Z"/><path class="cls-1" d="M253.89216,321.00615h35.9322a0,0,0,0,1,0,0v46.0381a0,0,0,0,1,0,0h-35.9322a23.019,23.019,0,0,1-23.019-23.019v0a23.019,23.019,0,0,1,23.019-23.019Z" transform="translate(-109.1231 121.2577) rotate(-21.79533)"/><path class="cls-2" d="M254.3493,375.28925a28.86043,28.86043,0,0,1-10.7084-55.65572l38.77872-15.50612,21.42495,53.577-38.77872,15.50693A28.8302,28.8302,0,0,1,254.3493,375.28925Zm21.5714-56.0015L247.97161,330.464a17.18719,17.18719,0,0,0,12.76352,31.91694l27.94909-11.1754Z"/><line class="cls-1" x1="401.02514" y1="288.98128" x2="418.74955" y2="281.8937"/><path class="cls-2" d="M401.02649,294.8143a5.83289,5.83289,0,0,1-2.16658-11.24863l17.72477-7.08714a5.832,5.832,0,0,1,4.3299,10.83045l-17.72477,7.08714A5.81164,5.81164,0,0,1,401.02649,294.8143Z"/><line class="cls-1" x1="392.47034" y1="267.5877" x2="403.7958" y2="252.22142"/><path class="cls-2" d="M392.46513,273.41945a5.83177,5.83177,0,0,1-4.6895-9.29195l11.32592-15.36618a5.83181,5.83181,0,1,1,9.38877,6.92035L397.1644,271.04785A5.82405,5.82405,0,0,1,392.46513,273.41945Z"/><line class="cls-1" x1="408.32919" y1="307.24703" x2="427.12711" y2="310.56767"/><path class="cls-2" d="M427.13362,316.40034a5.90589,5.90589,0,0,1-1.02105-.08949l-18.79788-3.32106a5.832,5.832,0,1,1,2.02908-11.48619l18.79788,3.32105a5.83234,5.83234,0,0,1-1.008,11.57569Z"/></svg>