<svg id="Layer_1" data-name="Layer 1" xmlns="http://www.w3.org/2000/svg" viewBox="0 0 500 500"><defs><style>.cls-1{fill:#fee101;}</style></defs><title>Iconos para Design Web Ariel Coreas</title><rect class="cls-1" x="163.35644" y="135.03067" width="174.12022" height="144.96133"/><path d="M202.10981,129.37462H168.65348a5.26531,5.26531,0,0,0-5.26531,5.26531V279.79747a5.26805,5.26805,0,0,0,5.268,5.26805H332.04509a5.26805,5.26805,0,0,0,5.268-5.26805V134.63993a5.26531,5.26531,0,0,0-5.26531-5.26531H226.51913a5.39578,5.39578,0,0,0-5.42471,4.60705,5.26269,5.26269,0,0,0,5.21926,5.91261h100.4798V274.54586H173.90783V139.89428h28.03673a5.36057,5.36057,0,0,0,5.2982-4.09554A5.26618,5.26618,0,0,0,202.10981,129.37462Z"/><path d="M306.39028,158.581a5.26845,5.26845,0,0,0-7.42129-.61913L250.07451,199.331,201.2403,157.88793a5.26523,5.26523,0,1,0-6.81312,8.02945l47.4946,40.30891-47.55761,40.2322a5.26588,5.26588,0,1,0,6.80217,8.04042l48.89448-41.36362L298.895,254.57561a5.26523,5.26523,0,1,0,6.81312-8.02945l-47.4946-40.30891,47.55761-40.2322A5.267,5.267,0,0,0,306.39028,158.581Z"/><path d="M330.95324,302.59828,169.42353,301.897h-.02595a5.20435,5.20435,0,0,0-4.986,3.52615,5.27668,5.27668,0,0,0,4.95746,6.99351l161.52873.70131h.026a5.20524,5.20524,0,0,0,4.98115-3.51589A5.27659,5.27659,0,0,0,330.95324,302.59828Z"/><path d="M169.42351,330.65069H169.393a5.25985,5.25985,0,0,0-.02188,10.51965l161.52941.70131h.02351a5.20435,5.20435,0,0,0,4.986-3.52614,5.27669,5.27669,0,0,0-4.95747-6.99351Z"/><path d="M169.36838,369.92407l161.52941.70131h.02625a5.20436,5.20436,0,0,0,4.986-3.52615,5.27669,5.27669,0,0,0-4.95747-6.99351l-161.52905-.70131h-.02564a5.20387,5.20387,0,0,0-4.9861,3.52656A5.27847,5.27847,0,0,0,169.36838,369.92407Z"/><path d="M377.633,113.94579a5.2653,5.2653,0,0,0,5.26531-5.2653V75.72986a5.26531,5.26531,0,0,0-5.26531-5.26531H344.68237a5.26531,5.26531,0,0,0-5.2653,5.26531V90.80255H160.58293V75.72986a5.26531,5.26531,0,0,0-5.2653-5.26531H122.367a5.26531,5.26531,0,0,0-5.26531,5.26531v32.95063a5.2653,5.2653,0,0,0,5.26531,5.2653h11.56614V386.05421H122.367a5.2653,5.2653,0,0,0-5.26531,5.2653v32.95063a5.26531,5.26531,0,0,0,5.26531,5.26531h32.95063a5.26531,5.26531,0,0,0,5.2653-5.26531V409.19745h16.29459a5.35772,5.35772,0,0,0,5.29534-4.09484,5.26754,5.26754,0,0,0-5.13449-6.42482H160.58293v-7.35828a5.2653,5.2653,0,0,0-5.2653-5.2653H144.45279V113.94579h10.86484a5.2653,5.2653,0,0,0,5.2653-5.2653V100.6209H339.41707v8.05959a5.2653,5.2653,0,0,0,5.2653,5.2653h11.56615V386.05421H344.68237a5.2653,5.2653,0,0,0-5.2653,5.2653v7.35828H198.74872a5.39511,5.39511,0,0,0-5.42392,4.60972,5.26026,5.26026,0,0,0,5.22084,5.90994H339.41707v15.07269a5.26531,5.26531,0,0,0,5.2653,5.26531H377.633a5.26531,5.26531,0,0,0,5.26531-5.26531V391.31951a5.2653,5.2653,0,0,0-5.26531-5.2653H366.76817V113.94579Zm-227.56972,305.07H127.62135V396.57386h22.44193Zm0-315.58965H127.62135V80.98421h22.44193ZM372.37865,419.01579H349.93672V396.57386h22.44193ZM349.93672,80.98421h22.44193v22.44193H349.93672Z"/></svg>