<svg id="Layer_1" data-name="Layer 1" xmlns="http://www.w3.org/2000/svg" viewBox="0 0 500 500"><defs><style>.cls-1{fill:#fee101;}.cls-2{fill:#0a0a0a;}.cls-3{fill:#fff;}</style></defs><title>Iconos para Design Web Ariel Coreas</title><path class="cls-1" d="M67.99487,142.739l350.07329-.2666s8.631,4.99867,8.39776-13.19648-10.96374-38.78965-45.58784-35.9904-273.527,1.19968-273.527,1.19968S63.82931,86.92053,67.99487,142.739Z"/><path class="cls-2" d="M400.0881,341.85253H95.80606a30.85978,30.85978,0,0,1-30.82512-30.82511V118.57875A30.86,30.86,0,0,1,95.80606,87.75364h304.282a30.8603,30.8603,0,0,1,30.82511,30.82511V311.02742A30.86,30.86,0,0,1,400.0881,341.85253ZM95.80606,99.4172A19.18338,19.18338,0,0,0,76.6445,118.57875V311.02742A19.18312,19.18312,0,0,0,95.80606,330.189h304.282a19.18286,19.18286,0,0,0,19.16155-19.16156V118.57875A19.18312,19.18312,0,0,0,400.0881,99.4172Z"/><rect class="cls-2" x="72.16043" y="136.9072" width="353.10569" height="11.66356"/><circle class="cls-2" cx="391.65854" cy="118.1622" r="9.58078"/><circle class="cls-2" cx="360.00032" cy="118.99531" r="9.58078"/><path class="cls-3" d="M311.26373,270.875l55.10254,114.91275s14.25611,31.5582,44.32847,16.58158,14.42181-46.70083,14.42181-46.70083L370.7733,242.33921l-56.89674-50.44842a3.742,3.742,0,0,0-6.22036,2.9773Z"/><path class="cls-2" d="M395.14068,412.24636a32.13923,32.13923,0,0,1-10.863-1.881c-15.18231-5.4079-22.55584-20.72771-23.19043-22.10023L305.495,272.33169l-3.66439-77.18685a9.57422,9.57422,0,0,1,15.91535-7.6176l57.77675,51.22861.50849,1.06173,54.34341,113.33a52.07015,52.07015,0,0,1,4.63907,20.16389c.16678,10.62054-3.46669,25.18778-21.71947,34.278A40.67507,40.67507,0,0,1,395.14068,412.24636Zm-78.10742-142.8273L371.681,383.38687c.048.10332,5.71462,12.18831,16.58,16.01623,5.94893,2.0958,12.62277,1.33672,19.83439-2.25363,24.589-12.24608,12.325-37.81787,11.79129-38.90076L366.02329,245.9219l-52.307-46.37923Z"/><line class="cls-3" x1="361.38484" y1="376.96701" x2="421.46898" y2="348.15568"/><path class="cls-2" d="M361.38911,382.80027a5.83277,5.83277,0,0,1-2.52537-11.0916l60.08407-28.81149a5.83143,5.83143,0,1,1,5.0426,10.5164l-60.08407,28.81149A5.79988,5.79988,0,0,1,361.38911,382.80027Z"/><path class="cls-3" d="M311.25343,270.84769s16.96977-41.71431,59.50748-28.53481"/><path class="cls-2" d="M311.25111,276.68112a5.83506,5.83506,0,0,1-5.39976-8.0309,65.68,65.68,0,0,1,15.25879-21.307c9.84926-9.04625,26.75556-18.22838,51.37627-10.601a5.83177,5.83177,0,0,1-3.45123,11.14124c-15.51507-4.80829-28.9856-2.09987-40.03408,8.04961a53.77884,53.77884,0,0,0-12.34534,17.11213A5.83485,5.83485,0,0,1,311.25111,276.68112Z"/><rect class="cls-1" x="103.81865" y="172.73098" width="134.13089" height="71.64756" rx="1"/><path class="cls-2" d="M237.11643,250.21031H104.65176a6.67253,6.67253,0,0,1-6.66489-6.66489V173.56409a6.67253,6.67253,0,0,1,6.66489-6.66489H237.11643a6.67253,6.67253,0,0,1,6.66489,6.66489v69.98133A6.67253,6.67253,0,0,1,237.11643,250.21031Zm-127.466-11.66355H232.11776v-59.984H109.65043Z"/><path class="cls-2" d="M238.78265,279.3692H105.48487a5.83178,5.83178,0,0,1,0-11.66356H238.78265a5.83178,5.83178,0,1,1,0,11.66356Z"/><path class="cls-2" d="M238.78265,304.36253H105.48487a5.83178,5.83178,0,1,1,0-11.66355H238.78265a5.83178,5.83178,0,1,1,0,11.66355Z"/></svg>