<svg id="Layer_1" data-name="Layer 1" xmlns="http://www.w3.org/2000/svg" viewBox="0 0 600 150"><defs><style>.cls-1{font-size:82px;font-family:VintageDisplay, Vintage Display;}.cls-1,.cls-2{fill:#070707;}</style></defs><title>logo ariel coreas</title><text class="cls-1" transform="translate(18.34 99.73)">ARIEL COREAS</text><path class="cls-2" d="M18.34,124.9v-.05c0-4.73,3.43-9.07,8.66-9.07a9.19,9.19,0,0,1,6,2,.65.65,0,0,1,.25.52.66.66,0,0,1-.65.66.72.72,0,0,1-.4-.18A7.88,7.88,0,0,0,26.93,117c-4.26,0-7.24,3.61-7.24,7.84v0c0,4.53,2.83,7.91,7.51,7.91a9,9,0,0,0,5.59-2v-5H27.33a.61.61,0,0,1,0-1.21h6.06a.66.66,0,0,1,.65.65v5.74a1.09,1.09,0,0,1-.45.75,10.43,10.43,0,0,1-6.44,2.25C21.62,133.91,18.34,129.83,18.34,124.9Z"/><path class="cls-2" d="M58.78,116.74a.66.66,0,0,1,.65-.65h6.71a6.91,6.91,0,0,1,4.93,1.72,4.63,4.63,0,0,1,1.33,3.26v.05c0,2.93-2.18,4.61-5.13,5l5,6.46a.65.65,0,0,1-.48,1.12.71.71,0,0,1-.57-.35l-5.38-7H60.08v6.71a.65.65,0,0,1-1.3,0ZM66,125.17c2.93,0,5.11-1.47,5.11-4v0c0-2.36-1.85-3.83-5-3.83h-6v7.88Z"/><path class="cls-2" d="M95.82,132.76l7.48-16.22a.92.92,0,0,1,.88-.63h0a.9.9,0,0,1,.87.63l7.47,16.17a.94.94,0,0,1,.1.4.62.62,0,0,1-.63.6.74.74,0,0,1-.65-.5l-2-4.51H99l-2.06,4.54a.64.64,0,0,1-.62.47.59.59,0,0,1-.61-.55A.9.9,0,0,1,95.82,132.76Zm13-5.23-4.61-10.14-4.63,10.14Z"/><path class="cls-2" d="M136.73,116.74a.66.66,0,0,1,.65-.65h5.71c3.86,0,6.51,2,6.51,5.35v0c0,3.68-3.18,5.59-6.83,5.59H138v6a.65.65,0,0,1-1.3,0Zm6.11,9.14c3.26,0,5.46-1.71,5.46-4.31v0c0-2.78-2.15-4.23-5.31-4.23h-5v8.59Z"/><path class="cls-2" d="M173.49,116.64a.65.65,0,0,1,1.3,0v7.56H186v-7.56a.65.65,0,0,1,1.3,0v16.42a.65.65,0,0,1-1.3,0V125.4H174.79v7.66a.65.65,0,1,1-1.3,0Z"/><path class="cls-2" d="M212.73,116.64a.65.65,0,1,1,1.3,0v16.42a.65.65,0,0,1-1.3,0Z"/><path class="cls-2" d="M238.67,124.9v-.05a8.82,8.82,0,0,1,8.76-9.07,9.17,9.17,0,0,1,6.44,2.46.76.76,0,0,1,.25.52.69.69,0,0,1-.68.66.68.68,0,0,1-.45-.18,7.81,7.81,0,0,0-5.58-2.28c-4.21,0-7.39,3.43-7.39,7.84v0a7.56,7.56,0,0,0,7.41,7.89,7.7,7.7,0,0,0,5.71-2.43.63.63,0,0,1,.45-.2.65.65,0,0,1,.63.62.63.63,0,0,1-.2.45,9.06,9.06,0,0,1-6.64,2.73A8.71,8.71,0,0,1,238.67,124.9Z"/><path class="cls-2" d="M305.5,116.74a.66.66,0,0,1,.65-.65h5.19c5.51,0,9.31,3.78,9.31,8.71v0c0,4.93-3.8,8.76-9.31,8.76h-5.19a.66.66,0,0,1-.65-.65Zm5.84,15.67c4.88,0,8-3.33,8-7.51v-.05c0-4.16-3.08-7.56-8-7.56h-4.53v15.12Z"/><path class="cls-2" d="M345.12,133V116.74a.66.66,0,0,1,.65-.65h11.32a.61.61,0,0,1,.6.6.62.62,0,0,1-.6.6H346.42v6.88H356a.61.61,0,0,1,0,1.21h-9.54v7h10.79a.61.61,0,0,1,.6.6.6.6,0,0,1-.6.6H345.77A.66.66,0,0,1,345.12,133Z"/><path class="cls-2" d="M381.2,131.41a.67.67,0,0,1-.25-.5.66.66,0,0,1,.65-.65.69.69,0,0,1,.43.15,8.14,8.14,0,0,0,5.91,2.28c2.63,0,4.43-1.48,4.43-3.48v-.05c0-1.86-1-2.93-5-3.73-4.2-.86-5.91-2.28-5.91-4.94v0c0-2.6,2.38-4.6,5.64-4.6a8.59,8.59,0,0,1,5.58,1.8.65.65,0,0,1,.27.52.65.65,0,0,1-1.07.5,7.55,7.55,0,0,0-4.83-1.65c-2.58,0-4.29,1.48-4.29,3.31v.05c0,1.85,1,3,5.11,3.83s5.76,2.28,5.76,4.83v.05c0,2.83-2.43,4.78-5.81,4.78A9.9,9.9,0,0,1,381.2,131.41Z"/><path class="cls-2" d="M418.16,116.64a.65.65,0,1,1,1.3,0v16.42a.65.65,0,0,1-1.3,0Z"/><path class="cls-2" d="M444.1,124.9v-.05c0-4.73,3.43-9.07,8.67-9.07a9.16,9.16,0,0,1,6,2,.65.65,0,0,1,.25.52.66.66,0,0,1-.65.66.72.72,0,0,1-.4-.18,7.86,7.86,0,0,0-5.26-1.78c-4.26,0-7.23,3.61-7.23,7.84v0c0,4.53,2.82,7.91,7.51,7.91a9,9,0,0,0,5.58-2v-5h-5.46a.61.61,0,0,1,0-1.21h6.06a.66.66,0,0,1,.65.65v5.74a1.05,1.05,0,0,1-.45.75,10.42,10.42,0,0,1-6.43,2.25C447.38,133.91,444.1,129.83,444.1,124.9Z"/><path class="cls-2" d="M484.54,116.66a.67.67,0,0,1,.66-.65h.2a.82.82,0,0,1,.65.38l11.81,15V116.61a.63.63,0,0,1,1.26,0v16.53a.54.54,0,0,1-.53.55h-.1a.9.9,0,0,1-.65-.43L485.8,118v15.1a.63.63,0,0,1-1.26,0Z"/><path class="cls-2" d="M524.36,133V116.74a.66.66,0,0,1,.65-.65h11.32a.61.61,0,0,1,.6.6.62.62,0,0,1-.6.6H525.66v6.88h9.54a.61.61,0,0,1,0,1.21h-9.54v7h10.79a.61.61,0,0,1,.6.6.6.6,0,0,1-.6.6H525A.66.66,0,0,1,524.36,133Z"/><path class="cls-2" d="M561.17,116.74a.66.66,0,0,1,.65-.65h6.71a6.91,6.91,0,0,1,4.93,1.72,4.63,4.63,0,0,1,1.33,3.26v.05c0,2.93-2.18,4.61-5.13,5l5,6.46a.75.75,0,0,1,.2.45.66.66,0,0,1-1.25.32l-5.39-7h-5.73v6.71a.65.65,0,1,1-1.3,0Zm7.21,8.43c2.93,0,5.11-1.47,5.11-4v0c0-2.36-1.86-3.83-5-3.83h-6v7.88Z"/></svg>